<?xml version="1.0" encoding="utf-8"?>
<!-- Generator: Adobe Illustrator 16.0.0, SVG Export Plug-In . SVG Version: 6.00 Build 0)  -->
<!DOCTYPE svg PUBLIC "-//W3C//DTD SVG 1.1//EN" "http://www.w3.org/Graphics/SVG/1.1/DTD/svg11.dtd">
<svg version="1.1" xmlns="http://www.w3.org/2000/svg" xmlns:xlink="http://www.w3.org/1999/xlink" x="0px" y="0px" width="500px"
	 height="500px" viewBox="0 0 500 500" enable-background="new 0 0 500 500" xml:space="preserve">
<g id="Capa_1">
	<g>
		<path fill="#4CC6DB" d="M381.594,457.819c-38.048,24.149-83.194,38.134-131.594,38.134c-19.536,0-38.524-2.278-56.739-6.58
			c-26.933-6.361-52.16-17.15-74.869-31.554C49.663,414.205,4.047,337.426,4.047,250C4.047,114.159,114.161,4.046,250,4.047
			C385.833,4.041,495.953,114.16,495.953,249.999C495.953,337.441,450.328,414.21,381.594,457.819z"/>
		<g>
			<g>
				<defs>
					<path id="SVGID_1_" d="M381.594,457.819c-38.048,24.149-83.194,38.134-131.594,38.134c-19.536,0-38.524-2.278-56.739-6.58
						c-26.933-6.361-52.16-17.15-74.869-31.554C49.663,414.205,4.047,337.426,4.047,250C4.047,114.16,114.161,4.046,250,4.047
						C385.833,4.041,495.953,114.16,495.953,250C495.953,337.441,450.328,414.21,381.594,457.819z"/>
				</defs>
				<clipPath id="SVGID_2_">
					<use xlink:href="#SVGID_1_"  overflow="visible"/>
				</clipPath>
				<g clip-path="url(#SVGID_2_)">
					<path fill="#844719" d="M367.83,476.17c-34.067,21.621-74.49,34.145-117.826,34.145c-17.491-0.002-34.493-2.044-50.801-5.892
						c-24.114-5.696-46.703-15.357-67.034-28.253l-24.205-307.937h284.069l-3.096,36.336L367.83,476.17z"/>
					<path fill="#9B642D" d="M367.83,476.17c-34.067,21.621-74.49,34.145-117.826,34.145c-17.491-0.002-34.493-2.044-50.801-5.892
						l-20.014-258.737c-1.895-22.12,15.558-41.122,37.759-41.117h171.99L367.83,476.17z"/>
					<g>
						<path fill="#E6E8E9" d="M346.08,55.822H153.919c-9.885-0.001-17.899,8.013-17.899,17.899v33.422h227.959V73.721
							C363.979,63.835,355.966,55.823,346.08,55.822z"/>
						<path fill="#E6E8E9" d="M412.658,168.233H87.341l15.466-63.387c2.276-9.326,10.63-15.887,20.229-15.887h253.926
							c9.598,0,17.952,6.562,20.227,15.887L412.658,168.233z"/>
					</g>
					<g>
						<path fill="#CED0D1" d="M168.683,168.235h-81.34l15.465-63.391c2.276-9.325,10.629-15.886,20.229-15.886h50.601
							L168.683,168.235z"/>
						<path fill="#CED0D1" d="M195.108,55.822h-41.19c-9.885-0.001-17.899,8.013-17.899,17.899v15.239h59.088L195.108,55.822z"/>
					</g>
					<circle fill="#FFFF99" cx="250" cy="325.137" r="93.445"/>
					<path fill="#FFCC66" d="M192.235,398.593c-21.734-17.106-35.683-43.658-35.683-73.455c0-24.083,9.113-46.033,24.07-62.608
						L192.235,398.593z"/>
					<g>
						<path fill="#844719" d="M206.111,358c8.039-1.881,14.39-3.367,22.991-11.971c8.602-8.602,10.088-14.949,11.969-22.99
							c2.139-9.131,4.562-19.481,16.862-31.781c12.296-12.299,22.648-14.72,31.777-16.855c1.766-0.414,3.449-0.811,5.096-1.267
							c-20.649-15.775-55.614-9.261-80.839,15.962c-22.163,22.165-29.868,51.836-20.716,72.725
							C197.814,359.945,202.082,358.941,206.111,358z"/>
						<path fill="#844719" d="M293.89,292.264c-8.039,1.881-14.387,3.369-22.986,11.969c-8.601,8.598-10.088,14.949-11.973,22.987
							c-2.137,9.133-4.562,19.481-16.858,31.782c-12.3,12.298-22.65,14.72-31.782,16.859c-1.767,0.414-3.454,0.813-5.099,1.267
							c20.646,15.779,55.611,9.263,80.839-15.963c22.163-22.162,29.865-51.837,20.717-72.724
							C302.185,290.32,297.915,291.32,293.89,292.264z"/>
					</g>
				</g>
			</g>
		</g>
	</g>
</g>
<g id="Layer_2" display="none">
	<g display="inline">
		<path fill="#4CD8A3" d="M381.594,457.819c-38.048,24.149-83.194,38.134-131.594,38.134c-19.536,0-38.525-2.278-56.739-6.58
			c-26.933-6.361-52.159-17.15-74.868-31.554C49.663,414.205,4.047,337.426,4.047,250C4.047,114.159,114.161,4.046,250,4.047
			C385.833,4.04,495.953,114.16,495.953,249.998C495.953,337.441,450.328,414.21,381.594,457.819z"/>
		<g>
			<g>
				<defs>
					<path id="SVGID_3_" d="M381.594,457.819c-38.048,24.149-83.194,38.134-131.594,38.134c-19.536,0-38.525-2.278-56.739-6.58
						c-26.933-6.361-52.159-17.15-74.868-31.554C49.663,414.205,4.047,337.426,4.047,250C4.047,114.16,114.161,4.046,250,4.047
						C385.833,4.04,495.953,114.16,495.953,249.999C495.953,337.441,450.328,414.21,381.594,457.819z"/>
				</defs>
				<clipPath id="SVGID_4_">
					<use xlink:href="#SVGID_3_"  overflow="visible"/>
				</clipPath>
				<g clip-path="url(#SVGID_4_)">
					<path fill="#FCEEE3" d="M367.83,476.17c-34.067,21.621-74.49,34.145-117.826,34.145c-17.49-0.002-34.492-2.044-50.801-5.892
						c-24.114-5.696-46.703-15.357-67.033-28.253l-24.205-307.937h284.069l-3.096,36.336L367.83,476.17z"/>
					<path fill="#663812" d="M367.83,476.17c-34.067,21.621-74.49,34.145-117.826,34.145c-17.49-0.002-34.492-2.044-50.801-5.892
						c-24.114-5.696-46.703-15.357-67.033-28.253l-24.205-307.937h284.069l-3.096,36.336L367.83,476.17z"/>
					<path fill="#844206" d="M367.83,476.17c-34.067,21.621-74.49,34.145-117.826,34.145c-17.49-0.002-34.492-2.044-50.801-5.892
						l-20.014-258.737c-1.895-22.119,15.559-41.121,37.759-41.116h171.99L367.83,476.17z"/>
					<g>
						<path fill="#E6E8E9" d="M346.08,55.821H153.919c-9.886-0.001-17.899,8.013-17.899,17.899v33.422h227.96V73.721
							C363.979,63.835,355.966,55.822,346.08,55.821z"/>
						<path fill="#E6E8E9" d="M412.658,168.233H87.342l15.466-63.387c2.276-9.326,10.63-15.888,20.229-15.888h253.926
							c9.598,0,17.952,6.563,20.227,15.888L412.658,168.233z"/>
					</g>
					<g>
						<path fill="#CED0D1" d="M168.683,168.235H87.342l15.466-63.391c2.276-9.325,10.63-15.887,20.229-15.887h50.601
							L168.683,168.235z"/>
						<path fill="#CED0D1" d="M195.108,55.821h-41.19c-9.885-0.001-17.898,8.013-17.898,17.899v15.238h59.088L195.108,55.821z"/>
					</g>
					<circle fill="#FFFF99" cx="250" cy="325.137" r="93.445"/>
					<path fill="#FFCC66" d="M192.235,398.593c-21.734-17.106-35.683-43.658-35.683-73.455c0-24.083,9.113-46.033,24.07-62.608
						L192.235,398.593z"/>
					<g>
						<path fill="#844719" d="M206.111,358c8.039-1.881,14.391-3.367,22.99-11.971c8.602-8.602,10.088-14.949,11.969-22.99
							c2.14-9.131,4.563-19.481,16.862-31.781c12.296-12.299,22.648-14.72,31.777-16.855c1.766-0.414,3.449-0.811,5.096-1.267
							c-20.649-15.775-55.614-9.261-80.839,15.962c-22.164,22.165-29.869,51.836-20.717,72.725
							C197.814,359.945,202.082,358.941,206.111,358z"/>
						<path fill="#844719" d="M293.89,292.264c-8.039,1.881-14.387,3.369-22.986,11.969c-8.601,8.598-10.088,14.949-11.973,22.987
							c-2.137,9.133-4.562,19.481-16.858,31.782c-12.299,12.298-22.65,14.72-31.781,16.859c-1.767,0.414-3.453,0.813-5.099,1.267
							c20.646,15.779,55.611,9.263,80.839-15.963c22.163-22.162,29.865-51.837,20.717-72.724
							C302.185,290.32,297.915,291.32,293.89,292.264z"/>
					</g>
				</g>
			</g>
		</g>
	</g>
</g>
</svg>
